<svg width="75" height="75" viewBox="0 0 75 75" fill="none" xmlns="http://www.w3.org/2000/svg">
<g id="devicon:tailwindcss" clip-path="url(#clip0_241_8)">
<path id="Vector" d="M37.5024 15.001C27.5022 15.001 21.2544 19.999 18.7524 29.9992C22.5013 25.0006 26.8776 23.1262 31.8763 24.376C34.7304 25.0873 36.77 27.1568 39.0288 29.4502C42.705 33.1809 46.9601 37.4998 56.2524 37.4998C66.2521 37.4998 72.5005 32.5012 75.0024 22.4986C71.253 27.5002 66.8772 29.3746 61.878 28.1248C59.0245 27.4129 56.9872 25.3439 54.7255 23.0506C51.0517 19.3199 46.7978 15.001 37.5024 15.001ZM18.7524 37.4998C8.75283 37.4998 2.50439 42.4984 0.00244141 52.501C3.75127 47.4994 8.12705 45.625 13.1263 46.8748C15.9804 47.5867 18.02 49.6557 20.2788 51.949C23.955 55.6797 28.2101 59.9986 37.5024 59.9986C47.502 59.9986 53.7505 55.0006 56.2524 45.0004C52.503 49.999 48.1272 51.8734 43.128 50.6236C40.2745 49.9123 38.2372 47.8428 35.9755 45.5494C32.3017 41.8188 28.0478 37.4998 18.7524 37.4998Z" fill="#38BDF8"/>
</g>
<defs>
<clipPath id="clip0_241_8">
<rect width="75" height="75" fill="white"/>
</clipPath>
</defs>
</svg>
