<svg width="75" height="75" viewBox="0 0 75 75" fill="none" xmlns="http://www.w3.org/2000/svg">
<g id="devicon:symfony-wordmark">
<path id="Vector" d="M47.5195 59.8242C44.5898 59.8242 42.5977 61.9336 42.5977 64.8633C42.5977 67.6172 44.5898 69.9023 47.5195 69.9023C50.3906 69.9023 52.3828 67.6172 52.3828 64.8633C52.3828 61.9336 50.4492 59.8242 47.5195 59.8242ZM47.5195 68.4375C45.4102 68.4375 44.5312 66.5625 44.5312 64.8633C44.5312 63.0469 45.6445 61.2891 47.5195 61.2891C49.3945 61.2891 50.5078 63.0469 50.5078 64.8633C50.5078 66.5625 49.5703 68.4375 47.5195 68.4375ZM38.0859 59.2969V59.7656H35.7422V60.7617C35.7422 61.1719 36.1523 61.4648 36.5625 61.4648H38.0859V69.668H39.0234C39.4336 69.668 39.8438 69.2578 39.8438 68.9062V61.5234H41.6016C42.0117 61.5234 42.1875 61.1133 42.1875 60.7031V59.7656H39.8438V59.1211C39.8438 57.832 40.0195 56.8359 41.543 56.8359H41.6016C42.0117 56.8945 42.3633 56.543 42.4219 56.0742L42.4805 55.4883C42.1289 55.4297 41.7773 55.3711 41.3086 55.3711C38.6719 55.4297 38.0859 56.9531 38.0859 59.2969ZM18.8086 59.8828V59.9414C18.457 59.9414 18.0469 60.2344 17.9297 60.5859L15.4688 67.9688H15.4102L13.0078 60.6445C12.832 60.293 12.4805 59.8828 12.1289 59.8828V59.7656H10.8984L14.1797 68.8477C14.2969 69.1406 14.5312 69.7266 14.5312 69.9609C14.5312 70.1367 14.0039 72.3633 12.4219 72.3633H12.3047C11.8945 72.3633 11.6016 72.6562 11.543 73.0664L11.4844 73.7109C11.7773 73.7695 12.1289 73.8281 12.7148 73.8281C15.0586 73.8281 15.7617 71.543 16.4062 69.7266L19.9219 59.7656H18.8086V59.8828ZM7.55859 61.9922C6.09375 61.2305 4.51172 60.7617 4.45312 59.2383C4.45312 57.6562 5.91797 57.2461 7.03125 57.2461C7.5 57.2461 7.91016 57.3047 8.32031 57.3633C8.73047 57.4219 9.08203 57.0703 9.14063 56.6602L9.19922 56.0742C8.4375 55.8984 7.67578 55.7812 7.03125 55.7812C4.57031 55.7812 2.75391 57.0117 2.75391 59.4141C2.75391 61.4648 4.16016 62.2852 5.625 62.9883C7.08984 63.6914 8.73047 64.2773 8.73047 65.9766C8.73047 67.7344 7.03125 68.4375 5.80078 68.4375C5.09766 68.4375 4.33594 68.2617 3.75 68.0859C3.33984 68.0273 3.04688 68.3789 2.98828 68.8477L2.92969 69.3164C3.80859 69.6094 4.6875 69.7852 5.56641 69.7852C8.32031 69.7852 10.4883 68.7305 10.4883 65.8594C10.4297 63.6328 9.02344 62.7539 7.55859 61.9922ZM31.8164 59.8242C30.9375 59.8242 29.4727 60.293 28.8281 61.6992C28.3008 60.4102 27.1875 59.8828 26.0742 59.8828C24.668 59.8828 23.6719 60.3516 23.0273 61.5234H22.8516V60.8203C22.8516 60.4102 22.5586 59.8828 22.0898 59.8828L22.1484 59.7656H21.0938V69.7266H22.2656C22.7344 69.7266 22.9688 69.3164 22.9688 68.9062L22.8516 68.8477V64.8633C22.8516 63.0469 23.7891 61.2891 25.6055 61.2891C27.0117 61.2891 27.5391 62.7539 27.5391 63.9844V69.7852H28.3008C28.7109 69.7852 29.2969 69.375 29.2969 68.9648V64.8633C29.2969 63.0469 29.9414 61.2891 31.7578 61.2891C33.1641 61.2891 33.3984 62.7539 33.3984 63.9844V69.7852H34.3359C34.7461 69.7852 35.1562 69.4336 35.1562 69.082V63.5742C35.1562 61.4062 34.2773 59.8242 31.8164 59.8242ZM59.0039 59.7656C57.6562 59.7656 56.3086 60.3516 55.7812 61.5234H55.6641V60.8203C55.6641 60.3516 55.3125 59.8828 54.8438 59.8828V59.7656H53.9062V69.7266H54.9609C55.3711 69.7266 55.6641 69.3164 55.6641 68.9062V65.2148C55.6641 62.8711 56.7188 61.2305 58.7695 61.2305C60.293 61.3477 60.9375 62.4023 60.9375 64.6289V69.668H61.6992C62.1094 69.668 62.6953 69.2578 62.6953 68.8477V63.9258C62.6953 61.3477 61.4648 59.7656 59.0039 59.7656ZM71.25 59.7656V59.9414C70.8984 59.9414 70.4883 60.2344 70.3711 60.5859L67.9102 67.9688H67.8516L65.4492 60.6445C65.2734 60.293 64.9219 59.8828 64.5703 59.8828V59.7656H63.3398L66.6211 68.8477C66.7383 69.1406 66.9727 69.7266 66.9727 69.9609C66.9727 70.1367 66.4453 72.3633 64.8633 72.3633H64.7461C64.3359 72.3633 64.043 72.6562 63.9844 73.0664L63.9258 73.7109C64.2188 73.7695 64.5703 73.8281 65.1562 73.8281C67.5 73.8281 68.2031 71.543 68.8477 69.7266L72.3633 59.7656H71.25ZM37.5 52.8516C51.9141 52.8516 63.6328 41.1328 63.6328 26.7188C63.6328 12.3047 51.9141 0.585938 37.5 0.585938C23.0859 0.585938 11.3672 12.3047 11.3672 26.7188C11.3672 41.1328 23.0859 52.8516 37.5 52.8516ZM20.1562 28.5938C20.5664 27.3047 21.5625 27.0703 22.6172 27.3633C23.6719 27.7148 24.1406 29.0039 23.7891 30C23.7305 30.1172 23.6719 30.293 23.6133 30.5273L23.1445 31.3477C22.9102 32.168 23.9648 32.6953 24.7266 32.9297C26.4258 33.457 28.0664 32.5781 28.4766 31.1719C28.8867 29.8828 28.0664 29.0039 27.7148 28.7109L26.1328 27.0117C25.3711 26.1914 23.7891 23.9062 24.5508 21.3281C24.8438 20.332 25.4883 19.2773 26.4258 18.5742C28.3594 17.1094 30.5273 16.875 32.5195 17.4609C35.1562 18.2227 36.3867 19.9805 38.0273 21.2695C38.9648 18.5742 40.1953 15.9375 42.1289 13.7109C43.8281 11.6602 46.1719 10.2539 48.8086 10.1367C51.4453 10.0781 53.4375 11.25 53.5547 13.125C53.5547 13.9453 53.1445 15.5273 51.5039 15.5859C50.2734 15.6445 49.4531 14.8828 49.3945 13.8281C49.3945 13.418 49.5117 13.0664 49.7461 12.6562C50.0391 12.1289 50.0977 12.0703 50.0391 11.8359C50.0391 11.1328 48.9844 11.1328 48.6914 11.1328C44.7656 11.25 43.7109 16.582 42.8906 20.8594L42.4805 23.1445C44.7656 23.4961 46.3477 23.0859 47.2266 22.5C48.457 21.6797 46.875 20.8594 47.0508 19.9219C47.2852 18.9844 48.1055 18.5156 48.8086 18.5156C49.7461 18.5156 50.4492 19.5117 50.4492 20.5078C50.3906 22.1484 48.2227 24.4922 43.7695 24.375C43.2422 24.375 42.7148 24.3164 42.2461 24.2578L41.6016 28.8867C40.8398 32.4023 39.8438 37.1484 36.3281 41.3086C33.2812 44.9414 30.1758 45.5273 28.7695 45.5273C26.1914 45.5859 24.4336 44.2383 24.375 42.3633C24.3164 40.5469 25.8984 39.6094 26.9531 39.5508C28.3594 39.4922 29.2969 40.4883 29.3555 41.6602C29.4141 42.6562 28.8867 42.9492 28.5352 43.125C28.3008 43.3008 27.9492 43.4766 28.0078 43.8867C28.0078 44.0625 28.1836 44.4727 28.7695 44.4141C29.8828 44.3555 30.5859 43.8281 31.1133 43.4766C33.6328 41.3672 34.6289 37.6758 35.918 30.9961L36.2109 29.3555C36.6211 27.1875 37.1484 24.7852 37.8516 22.3242C36.0938 20.9766 34.9805 19.3359 32.5781 18.6914C30.9375 18.2227 29.9414 18.6328 29.2383 19.5117C28.418 20.5664 28.6523 21.9141 29.4727 22.7344L30.8203 24.1992C32.4609 26.0742 33.3398 27.5391 32.9883 29.5312C32.4609 32.6953 28.7109 35.0977 24.2578 33.75C20.3906 32.7539 19.6875 30.0586 20.1562 28.5938Z" fill="#1A171B"/>
</g>
</svg>
