<svg width="75" height="75" viewBox="0 0 75 75" fill="none" xmlns="http://www.w3.org/2000/svg">
<g id="devicon:vuejs-wordmark" clip-path="url(#clip0_230_28)">
<path id="Vector" d="M18.862 57.3945C18.6422 57.3942 18.4272 57.4586 18.2438 57.5797C18.0569 57.7033 17.8858 57.9166 17.8858 58.1896C17.8858 58.226 17.8647 58.3068 17.935 58.4475L17.9168 58.4029L21.6727 70.5887C21.7401 70.8172 21.9012 70.9918 22.0828 71.0926C22.2645 71.1934 22.4625 71.2303 22.6559 71.2303C23.0661 71.2303 23.5172 71.0346 23.6549 70.5928V70.5916L27.4073 58.3602V58.3156C27.4073 58.3777 27.4254 58.342 27.4254 58.2084C27.4254 57.9301 27.2479 57.7256 27.058 57.5973C26.8681 57.4667 26.6434 57.3961 26.4129 57.3945C26.1258 57.3945 25.7965 57.5686 25.6864 57.9002L25.684 57.9037L22.6547 68.0135L19.6137 57.9219C19.5686 57.7414 19.4473 57.5908 19.3061 57.5064C19.1649 57.4221 19.0108 57.3945 18.862 57.3945ZM48.777 58.0227C48.1793 58.0227 47.6754 58.4809 47.6754 59.0539C47.6754 59.627 48.1711 60.101 48.777 60.101C49.3711 60.101 49.8434 59.6182 49.8434 59.0539C49.8434 58.4897 49.3629 58.0227 48.777 58.0227ZM39.9709 61.9238C37.9272 61.9238 36.2438 63.5598 36.2438 65.5256V67.54C36.2438 68.641 36.6821 69.585 37.4274 70.2359C38.1715 70.8875 39.211 71.2479 40.4022 71.2479C41.2823 71.2479 42 71.0504 42.5127 70.7832C42.7694 70.649 42.9756 70.499 43.1274 70.3355C43.2797 70.1715 43.3911 69.9928 43.3911 69.7689C43.3911 69.5639 43.3125 69.3857 43.1842 69.2258C43.0565 69.0658 42.8549 68.9188 42.5948 68.9188C42.4073 68.9188 42.2631 68.9979 42.1383 69.0746C42.0135 69.1508 41.8963 69.2357 41.7551 69.3172C41.4727 69.4795 41.0989 69.6377 40.4379 69.6377C39.702 69.6377 39.0891 69.4279 38.6661 69.0752C38.2442 68.7236 37.9981 68.2344 37.9981 67.5934V67.2207H41.7686C42.1711 67.2207 42.6182 67.2207 43.0049 66.9746C43.3916 66.7273 43.626 66.2363 43.626 65.4904C43.626 63.4221 41.901 61.9238 39.9709 61.9238ZM54.1424 61.9238C53.0561 61.9238 52.2569 62.2754 51.7436 62.8039C51.2303 63.3324 51.0088 64.0203 51.0088 64.6625C51.0088 65.4816 51.3399 66.0688 51.8133 66.4443C52.2873 66.8211 52.8768 67.0104 53.4375 67.1791C53.9983 67.3484 54.535 67.4984 54.8954 67.7205C55.2557 67.9432 55.4491 68.1828 55.4491 68.6896C55.4491 68.9621 55.367 69.1789 55.1461 69.3559C54.9246 69.5334 54.5309 69.6728 53.8905 69.6728C53.1329 69.6728 52.7092 69.4859 52.4004 69.2955C52.2463 69.2 52.1221 69.101 51.9944 69.0125C51.8666 68.924 51.7213 68.8285 51.518 68.8285C51.2737 68.8285 51.0932 68.9791 50.9836 69.135C50.8726 69.2878 50.8122 69.4716 50.8108 69.6605C50.8108 69.8979 50.9268 70.1064 51.0903 70.2875C51.2543 70.4686 51.4752 70.6297 51.7471 70.7703C52.2903 71.0516 53.0385 71.2479 53.9268 71.2479C54.8918 71.2479 55.6852 71.0123 56.2471 70.5553C56.8084 70.0982 57.1143 69.4191 57.1143 68.6363C57.1143 67.7516 56.7926 67.1158 56.3192 66.6951C55.8452 66.275 55.2469 66.0582 54.678 65.8836C54.109 65.7096 53.5612 65.5736 53.195 65.3826C52.8282 65.1916 52.6559 65.0152 52.6559 64.6092C52.6559 64.3895 52.7438 64.1129 52.967 63.8943C53.1903 63.677 53.5547 63.5 54.1606 63.5C54.6446 63.5 55.0043 63.6113 55.2926 63.7285C55.4368 63.7877 55.5621 63.8492 55.6805 63.9008C55.7994 63.9518 55.909 64.0021 56.0661 64.0021C56.3502 64.0021 56.5454 63.8146 56.6614 63.6406C56.7774 63.4666 56.8442 63.2949 56.8442 63.098C56.8442 62.852 56.6912 62.6773 56.5219 62.5473C56.3526 62.4172 56.1393 62.3117 55.8932 62.2215C55.401 62.041 54.7729 61.9238 54.1424 61.9238ZM28.445 62.0328C27.9698 62.0328 27.559 62.3311 27.559 62.7746V67.5752C27.559 69.5229 29.2149 71.2479 31.268 71.2479C33.2871 71.2479 34.977 69.5428 34.977 67.5752V62.757C34.977 62.5355 34.8551 62.3428 34.6946 62.2203C34.534 62.0984 34.3301 62.0328 34.1086 62.0328C33.8871 62.0328 33.6821 62.0973 33.518 62.2174C33.3539 62.3369 33.2227 62.5279 33.2227 62.757V67.5752C33.2227 68.5959 32.3332 69.5838 31.268 69.5838C30.1858 69.5838 29.3139 68.5783 29.3139 67.5752V62.7746C29.3139 62.5443 29.1879 62.3674 29.0327 62.2414C28.8774 62.1154 28.6723 62.0328 28.445 62.0328ZM48.7776 62.0328C48.5549 62.0328 48.3498 62.0902 48.1858 62.2139C48.0217 62.3369 47.9104 62.5408 47.9104 62.757V71.6023C47.9104 72.2662 47.8635 72.8229 47.7176 73.1604C47.5723 73.4973 47.4 73.6467 46.909 73.6467C46.4748 73.6467 46.1121 74.0258 46.1121 74.4799C46.1121 74.668 46.1731 74.8754 46.3272 75.0365C46.4813 75.1977 46.7209 75.2932 46.9981 75.2932C47.9321 75.2932 48.6469 74.8789 49.0723 74.2062C49.4989 73.533 49.6641 72.633 49.6641 71.6023V62.757C49.6641 62.5268 49.5329 62.3264 49.3653 62.208C49.1923 62.0901 48.9869 62.0289 48.7776 62.0328ZM39.9528 63.4818C41.1194 63.4818 41.9075 64.4586 41.9075 65.4535C41.9075 65.5619 41.8957 65.6328 41.884 65.665C41.8735 65.6973 41.8746 65.6932 41.8582 65.7043C41.826 65.7254 41.6455 65.7717 41.301 65.7717H37.9981V65.3814C37.9981 64.3402 38.8682 63.4818 39.9528 63.4818ZM45.5262 68.9721C44.8887 68.9721 44.4059 69.4994 44.4059 70.11C44.4059 70.6959 44.8817 71.2303 45.5262 71.2303C46.1368 71.2303 46.6278 70.7123 46.6278 70.11C46.6278 69.4848 46.1286 68.9721 45.5262 68.9721Z" fill="#35495E"/>
<path id="Vector_2" d="M18.4009 0.230957L29.9608 0.234473L37.5171 12.7776L45.047 0.23623L56.597 0.233301L37.5751 33.2286L18.4009 0.230957Z" fill="#35495E"/>
<path id="Vector_3" d="M5.79297 0.318945L18.3906 0.233398L37.5637 33.2305L56.5867 0.235156L69.2061 0.248633L37.5613 54.5557L5.79297 0.318945Z" fill="#41B883"/>
</g>
<defs>
<clipPath id="clip0_230_28">
<rect width="75" height="75" fill="white"/>
</clipPath>
</defs>
</svg>
