<svg width="47" height="70" viewBox="0 0 47 70" fill="none" xmlns="http://www.w3.org/2000/svg">
<g id="figma-logo">
<g id="Clip path group">
<mask id="mask0_230_74" style="mask-type:luminance" maskUnits="userSpaceOnUse" x="0" y="0" width="47" height="70">
<g id="skillIconsFigmaLight0">
<path id="Vector" d="M0.243652 0L46.3188 0.162491L46.0752 69.2615L-3.4733e-05 69.099L0.243652 0Z" fill="white"/>
</g>
</mask>
<g mask="url(#mask0_230_74)">
<g id="Group">
<path id="Vector_2" d="M11.5219 69.1396C17.879 69.1621 23.0565 64.021 23.0789 57.6639L23.1195 46.1471L11.6032 46.1065C5.24605 46.0841 0.0682296 51.2255 0.0458104 57.5826C0.0233912 63.9398 5.16482 69.1172 11.5219 69.1396Z" fill="#0ACF83"/>
<path id="Vector_3" d="M0.126378 34.5496C0.148797 28.1925 5.32661 23.0514 11.6837 23.0738L23.2001 23.1144L23.1189 46.1472L11.6025 46.1066C5.24538 46.0842 0.103959 40.9067 0.126378 34.5496Z" fill="#A259FF"/>
<path id="Vector_4" d="M0.207433 11.5164C0.229852 5.15927 5.40767 0.0181961 11.7648 0.0406153L23.2812 0.0812294L23.1999 23.1143L11.6835 23.0737C5.32644 23.0513 0.185014 17.8735 0.207433 11.5164Z" fill="#F24E1E"/>
<path id="Vector_5" d="M23.2812 0.0810547L34.7976 0.121669C41.1547 0.144088 46.2962 5.32156 46.2737 11.6787C46.2513 18.0358 41.0735 23.1772 34.7164 23.1548L23.2 23.1142L23.2812 0.0810547Z" fill="#FF7262"/>
<path id="Vector_6" d="M46.1932 34.7119C46.1708 41.069 40.9929 46.21 34.6358 46.1876C28.2787 46.1652 23.1377 40.9877 23.1601 34.6306C23.1825 28.2735 28.36 23.1325 34.7171 23.1549C41.0742 23.1773 46.2156 28.3548 46.1932 34.7119Z" fill="#1ABCFE"/>
</g>
</g>
</g>
</g>
</svg>
