<svg width="83" height="51" viewBox="0 0 83 51" fill="none" xmlns="http://www.w3.org/2000/svg">
<g id="logos:nodejs" clip-path="url(#clip0_230_47)">
<g id="Group">
<path id="Vector" d="M41.0317 50.853C40.7508 50.853 40.4885 50.7779 40.2448 50.6465L37.753 49.1636C37.3782 48.957 37.5656 48.882 37.6781 48.8445C38.1839 48.6756 38.2776 48.6379 38.8022 48.3377C38.8585 48.3001 38.9335 48.3189 38.9896 48.3564L40.9007 49.5015C40.9756 49.539 41.0693 49.539 41.1254 49.5015L48.6011 45.1652C48.676 45.1277 48.7136 45.0525 48.7136 44.9587V36.305C48.7136 36.2109 48.676 36.1361 48.6011 36.0984L41.1254 31.7809C41.0505 31.7432 40.9568 31.7432 40.9007 31.7809L33.425 36.0984C33.3501 36.1359 33.3125 36.2298 33.3125 36.3048V44.9586C33.3125 45.0338 33.3501 45.1275 33.425 45.1652L35.4673 46.3478C36.5727 46.9109 37.2659 46.2539 37.2659 45.5969V37.0557C37.2659 36.9431 37.3596 36.8304 37.4907 36.8304H38.4462C38.5587 36.8304 38.6711 36.9243 38.6711 37.0557V45.5969C38.6711 47.0798 37.8654 47.9434 36.4602 47.9434C36.0293 47.9434 35.6921 47.9434 34.7365 47.474L32.7693 46.3478C32.2822 46.0663 31.9824 45.5405 31.9824 44.9774V36.3237C31.9824 35.7605 32.2822 35.2348 32.7693 34.9533L40.2448 30.617C40.7133 30.3542 41.3504 30.3542 41.8187 30.617L49.2942 34.9533C49.7814 35.2348 50.0813 35.7605 50.0813 36.3237V44.9774C50.0813 45.5405 49.7814 46.0663 49.2942 46.3478L41.8187 50.6841C41.5751 50.7968 41.294 50.853 41.0317 50.853ZM43.3362 44.9024C40.0576 44.9024 39.383 43.4006 39.383 42.1242C39.383 42.0115 39.4767 41.8989 39.6079 41.8989H40.5822C40.6945 41.8989 40.7882 41.9739 40.7882 42.0867C40.9382 43.0815 41.369 43.5696 43.355 43.5696C44.9288 43.5696 45.6035 43.2129 45.6035 42.3681C45.6035 41.8801 45.4159 41.5235 42.9616 41.2794C40.9194 41.0728 39.6453 40.6224 39.6453 38.9893C39.6453 37.4687 40.9195 36.5676 43.0553 36.5676C45.4534 36.5676 46.6339 37.3937 46.7838 39.1956C46.7838 39.2521 46.765 39.3083 46.7276 39.3647C46.69 39.4022 46.6339 39.4397 46.5776 39.4397H45.6033C45.5096 39.4397 45.4159 39.3647 45.3973 39.2708C45.1725 38.2384 44.5916 37.9004 43.0553 37.9004C41.3316 37.9004 41.1254 38.5012 41.1254 38.9516C41.1254 39.4961 41.369 39.665 43.6922 39.9653C45.9968 40.2658 47.0836 40.6975 47.0836 42.3118C47.0648 43.9637 45.7158 44.9024 43.3362 44.9024Z" fill="#539E43"/>
<path id="Vector_2" d="M17.8367 17.0074C17.8367 16.6696 17.6493 16.3503 17.3496 16.1813L9.40557 11.6011C9.27427 11.5259 9.12448 11.4884 8.97469 11.4695H8.89963C8.74984 11.4695 8.59989 11.5259 8.46874 11.6011L0.524736 16.1813C0.224834 16.3503 0.0375977 16.6694 0.0375977 17.0074L0.0564023 29.3216C0.0564023 29.4905 0.150102 29.6595 0.299891 29.7347C0.449842 29.8285 0.637078 29.8285 0.768387 29.7347L5.48982 27.0315C5.78956 26.8626 5.97696 26.5434 5.97696 26.2056V20.4426C5.97696 20.1048 6.1642 19.7856 6.4641 19.6167L8.46874 18.4528C8.6187 18.3589 8.78729 18.3212 8.95588 18.3212C9.12448 18.3212 9.29307 18.3589 9.42438 18.4528L11.429 19.6167C11.7289 19.7856 11.9162 20.1046 11.9162 20.4426V26.2056C11.9162 26.5434 12.1036 26.8626 12.4033 27.0315L17.1247 29.7347C17.1977 29.7807 17.2821 29.8051 17.3683 29.8051C17.4545 29.8051 17.5389 29.7807 17.6119 29.7347C17.7618 29.6595 17.8555 29.4905 17.8555 29.3216L17.8367 17.0074ZM56.0205 0.0564005C55.8707 -0.0188002 55.6833 -0.0188002 55.552 0.0564005C55.4022 0.150279 55.3085 0.300356 55.3085 0.469273V12.6711C55.3085 12.7837 55.2524 12.8962 55.1399 12.9714C55.0275 13.0276 54.915 13.0276 54.8027 12.9714L52.8167 11.8264C52.6711 11.7433 52.5064 11.6996 52.3389 11.6996C52.1713 11.6996 52.0066 11.7433 51.861 11.8264L43.917 16.4255C43.6173 16.5944 43.4299 16.9135 43.4299 17.2514V26.4307C43.4299 26.7685 43.6173 27.0879 43.917 27.2568L51.861 31.8559C52.0066 31.9389 52.1713 31.9826 52.3389 31.9826C52.5064 31.9826 52.6711 31.9389 52.8167 31.8559L60.7607 27.2568C61.0604 27.0879 61.2478 26.7687 61.2478 26.4307V3.54795C61.2478 3.19128 61.0604 2.87228 60.7607 2.7032L56.0205 0.0564005ZM55.2898 23.4086C55.2898 23.5024 55.2524 23.5775 55.1773 23.615L52.4607 25.1918C52.4227 25.2103 52.3811 25.2199 52.3389 25.2199C52.2966 25.2199 52.255 25.2103 52.217 25.1918L49.5004 23.615C49.4254 23.5775 49.3879 23.4836 49.3879 23.4086V20.2548C49.3879 20.161 49.4254 20.0859 49.5004 20.0484L52.217 18.4715C52.255 18.4529 52.2966 18.4433 52.3389 18.4433C52.3811 18.4433 52.4227 18.4529 52.4607 18.4715L55.1773 20.0484C55.2524 20.0858 55.2898 20.1798 55.2898 20.2548V23.4086ZM82.4568 20.1798C82.7567 20.0109 82.9253 19.6917 82.9253 19.3537V17.12C82.9253 16.7821 82.7379 16.463 82.4568 16.2941L74.569 11.7138C74.4234 11.6307 74.2587 11.5871 74.0912 11.5871C73.9236 11.5871 73.759 11.6307 73.6134 11.7138L65.6694 16.3127C65.3695 16.4816 65.1822 16.8008 65.1822 17.1386V26.3182C65.1822 26.656 65.3696 26.9751 65.6694 27.1441L73.5571 31.6493C73.857 31.8182 74.213 31.8182 74.4941 31.6493L79.2716 28.984C79.4216 28.9088 79.5153 28.7398 79.5153 28.5709C79.5153 28.402 79.4216 28.2331 79.2716 28.1579L71.2902 23.5588C71.1402 23.4649 71.0465 23.3148 71.0465 23.1459V20.2738C71.0465 20.1049 71.1402 19.936 71.2902 19.8608L73.782 18.4341C73.8549 18.3881 73.9393 18.3637 74.0255 18.3637C74.1117 18.3637 74.1962 18.3881 74.2691 18.4341L76.761 19.8608C76.911 19.9547 77.0045 20.1048 77.0045 20.2738V22.5264C77.0045 22.6954 77.0982 22.8643 77.2482 22.9393C77.3211 22.9853 77.4056 23.0097 77.4918 23.0097C77.5779 23.0097 77.6624 22.9853 77.7353 22.9393L82.4568 20.1798Z" fill="#333333"/>
<path id="Vector_3" d="M73.9696 19.7479C73.9974 19.7295 74.03 19.7197 74.0633 19.7197C74.0966 19.7197 74.1292 19.7295 74.157 19.7479L75.6747 20.6302C75.7308 20.6678 75.7682 20.724 75.7682 20.7991V22.5638C75.7682 22.6388 75.7309 22.6952 75.6747 22.7327L74.157 23.615C74.1292 23.6333 74.0966 23.6431 74.0633 23.6431C74.03 23.6431 73.9974 23.6333 73.9696 23.615L72.4521 22.7327C72.3958 22.6952 72.3584 22.6388 72.3584 22.5638V20.7992C72.3584 20.724 72.3957 20.6677 72.4521 20.6303L73.9696 19.7479Z" fill="#539E43"/>
<g id="Group_2">
<path id="Vector_4" d="M31.1203 11.7512C30.9747 11.6682 30.8101 11.6245 30.6426 11.6245C30.4751 11.6245 30.3104 11.6682 30.1648 11.7512L22.2771 16.3125C21.9772 16.4814 21.8086 16.8005 21.8086 17.1384V26.2804C21.8086 26.6182 21.996 26.9373 22.2771 27.1063L30.1648 31.6678C30.3104 31.7509 30.4751 31.7945 30.6426 31.7945C30.8101 31.7945 30.9747 31.7509 31.1203 31.6678L39.0082 27.1063C39.308 26.9373 39.4767 26.6182 39.4767 26.2804V17.1385C39.4767 16.8007 39.2892 16.4815 39.0082 16.3126L31.1203 11.7512Z" fill="url(#paint0_linear_230_47)"/>
</g>
</g>
</g>
<defs>
<linearGradient id="paint0_linear_230_47" x1="1226.56" y1="364.338" x2="359.628" y2="1723.94" gradientUnits="userSpaceOnUse">
<stop stop-color="#41873F"/>
<stop offset="0.3288" stop-color="#418B3D"/>
<stop offset="0.6352" stop-color="#419637"/>
<stop offset="0.9319" stop-color="#3FA92D"/>
<stop offset="1" stop-color="#3FAE2A"/>
</linearGradient>
<clipPath id="clip0_230_47">
<rect width="83" height="51" fill="white"/>
</clipPath>
</defs>
</svg>
