<svg width="75" height="75" viewBox="0 0 75 75" fill="none" xmlns="http://www.w3.org/2000/svg">
<g clip-path="url(#clip0_230_35)">
<path d="M57.4219 0H17.5781C7.86999 0 0 7.86999 0 17.5781V57.4219C0 67.13 7.86999 75 17.5781 75H57.4219C67.13 75 75 67.13 75 57.4219V17.5781C75 7.86999 67.13 0 57.4219 0Z" fill="#242938"/>
<path d="M14.4018 29.3689H22.7244C25.1672 29.3895 26.9373 30.0938 28.0348 31.4807C29.1322 32.8676 29.4943 34.7619 29.1217 37.1637C28.977 38.2611 28.6559 39.3375 28.159 40.3934C27.6826 41.4492 27.0205 42.4014 26.1715 43.2504C25.1361 44.3268 24.0287 45.01 22.8486 45.3C21.6686 45.59 20.4469 45.7348 19.1842 45.7348H15.4576L14.2775 51.6352H9.96094L14.4018 29.3689ZM18.0352 32.9092L16.1719 42.2256C16.2961 42.2461 16.4203 42.2566 16.5445 42.2566H16.9793C18.9668 42.2771 20.6232 42.0809 21.948 41.6666C23.2729 41.2318 24.1635 39.7207 24.6187 37.1326C24.9914 34.9588 24.6188 33.7061 23.5008 33.375C22.4033 33.0439 21.027 32.8887 19.3705 32.9092C19.1221 32.9297 18.8842 32.9402 18.6562 32.9402H18.0041L18.0352 32.9092ZM34.0389 23.4375H38.3244L37.1133 29.3689H40.9641C43.0758 29.4105 44.649 29.8453 45.6844 30.6732C46.7402 31.5012 47.0508 33.075 46.616 35.3936L44.5354 45.7348H40.1877L42.1752 35.8594C42.382 34.824 42.3199 34.0893 41.9889 33.6545C41.6578 33.2197 40.9436 33.0023 39.8461 33.0023L36.399 32.9713L33.8525 45.7348H29.567L34.0389 23.4375ZM51.218 29.3689H59.5406C61.9834 29.3895 63.7535 30.0938 64.851 31.4807C65.9484 32.8676 66.3105 34.7619 65.9379 37.1637C65.7932 38.2611 65.4721 39.3375 64.9752 40.3934C64.4988 41.4492 63.8367 42.4014 62.9877 43.2504C61.9523 44.3268 60.8449 45.01 59.6648 45.3C58.4848 45.59 57.2631 45.7348 56.0004 45.7348H52.2738L51.0938 51.6352H46.7771L51.218 29.3689ZM54.8514 32.9092L52.9881 42.2256C53.1123 42.2461 53.2365 42.2566 53.3607 42.2566H53.7955C55.783 42.2771 57.4395 42.0809 58.7643 41.6666C60.0891 41.2318 60.9797 39.7207 61.435 37.1326C61.8076 34.9588 61.435 33.7061 60.317 33.375C59.2195 33.0439 57.8432 32.8887 56.1867 32.9092C55.9383 32.9297 55.7004 32.9402 55.4725 32.9402H54.8203L54.8514 32.9092Z" fill="white"/>
</g>
<defs>
<clipPath id="clip0_230_35">
<rect width="75" height="75" fill="white"/>
</clipPath>
</defs>
</svg>
