<svg id="visual" viewBox="0 0 1200 300" width="1200" height="300" xmlns="http://www.w3.org/2000/svg" xmlns:xlink="http://www.w3.org/1999/xlink" version="1.1"><rect x="0" y="0" width="1200" height="300" fill="#FDC93E"></rect><path d="M0 26L150 26L150 67L300 67L300 60L450 60L450 27L600 27L600 27L750 27L750 53L900 53L900 42L1050 42L1050 71L1200 71L1200 67L1200 301L1200 301L1050 301L1050 301L900 301L900 301L750 301L750 301L600 301L600 301L450 301L450 301L300 301L300 301L150 301L150 301L0 301Z" fill="#fdc93e"></path><path d="M0 78L150 78L150 106L300 106L300 77L450 77L450 122L600 122L600 90L750 90L750 118L900 118L900 86L1050 86L1050 88L1200 88L1200 101L1200 301L1200 301L1050 301L1050 301L900 301L900 301L750 301L750 301L600 301L600 301L450 301L450 301L300 301L300 301L150 301L150 301L0 301Z" fill="#f4a31d"></path><path d="M0 128L150 128L150 147L300 147L300 157L450 157L450 163L600 163L600 140L750 140L750 132L900 132L900 139L1050 139L1050 161L1200 161L1200 155L1200 301L1200 301L1050 301L1050 301L900 301L900 301L750 301L750 301L600 301L600 301L450 301L450 301L300 301L300 301L150 301L150 301L0 301Z" fill="#e97b00"></path><path d="M0 219L150 219L150 208L300 208L300 223L450 223L450 175L600 175L600 179L750 179L750 180L900 180L900 175L1050 175L1050 175L1200 175L1200 208L1200 301L1200 301L1050 301L1050 301L900 301L900 301L750 301L750 301L600 301L600 301L450 301L450 301L300 301L300 301L150 301L150 301L0 301Z" fill="#dc4f00"></path><path d="M0 225L150 225L150 246L300 246L300 249L450 249L450 269L600 269L600 272L750 272L750 231L900 231L900 225L1050 225L1050 250L1200 250L1200 257L1200 301L1200 301L1050 301L1050 301L900 301L900 301L750 301L750 301L600 301L600 301L450 301L450 301L300 301L300 301L150 301L150 301L0 301Z" fill="#cc0000"></path></svg>