<svg id="visual" viewBox="0 0 1200 300" width="1200" height="300" xmlns="http://www.w3.org/2000/svg" xmlns:xlink="http://www.w3.org/1999/xlink" version="1.1"><rect x="0" y="0" width="1200" height="300" fill="#00BCC8"></rect><path d="M0 105L28.5 105.8C57 106.7 114 108.3 171.2 104C228.3 99.7 285.7 89.3 342.8 92C400 94.7 457 110.3 514.2 117.2C571.3 124 628.7 122 685.8 111.7C743 101.3 800 82.7 857.2 78C914.3 73.3 971.7 82.7 1028.8 91.8C1086 101 1143 110 1171.5 114.5L1200 119L1200 301L1171.5 301C1143 301 1086 301 1028.8 301C971.7 301 914.3 301 857.2 301C800 301 743 301 685.8 301C628.7 301 571.3 301 514.2 301C457 301 400 301 342.8 301C285.7 301 228.3 301 171.2 301C114 301 57 301 28.5 301L0 301Z" fill="#00bcc8"></path><path d="M0 94L28.5 98.7C57 103.3 114 112.7 171.2 118.8C228.3 125 285.7 128 342.8 133.5C400 139 457 147 514.2 150C571.3 153 628.7 151 685.8 143.2C743 135.3 800 121.7 857.2 116.8C914.3 112 971.7 116 1028.8 119.8C1086 123.7 1143 127.3 1171.5 129.2L1200 131L1200 301L1171.5 301C1143 301 1086 301 1028.8 301C971.7 301 914.3 301 857.2 301C800 301 743 301 685.8 301C628.7 301 571.3 301 514.2 301C457 301 400 301 342.8 301C285.7 301 228.3 301 171.2 301C114 301 57 301 28.5 301L0 301Z" fill="#0098bf"></path><path d="M0 168L28.5 171C57 174 114 180 171.2 176.2C228.3 172.3 285.7 158.7 342.8 153.2C400 147.7 457 150.3 514.2 153.5C571.3 156.7 628.7 160.3 685.8 158C743 155.7 800 147.3 857.2 144.2C914.3 141 971.7 143 1028.8 143.2C1086 143.3 1143 141.7 1171.5 140.8L1200 140L1200 301L1171.5 301C1143 301 1086 301 1028.8 301C971.7 301 914.3 301 857.2 301C800 301 743 301 685.8 301C628.7 301 571.3 301 514.2 301C457 301 400 301 342.8 301C285.7 301 228.3 301 171.2 301C114 301 57 301 28.5 301L0 301Z" fill="#0074ab"></path><path d="M0 175L28.5 174.5C57 174 114 173 171.2 175C228.3 177 285.7 182 342.8 186.7C400 191.3 457 195.7 514.2 198C571.3 200.3 628.7 200.7 685.8 195.7C743 190.7 800 180.3 857.2 176.3C914.3 172.3 971.7 174.7 1028.8 179.3C1086 184 1143 191 1171.5 194.5L1200 198L1200 301L1171.5 301C1143 301 1086 301 1028.8 301C971.7 301 914.3 301 857.2 301C800 301 743 301 685.8 301C628.7 301 571.3 301 514.2 301C457 301 400 301 342.8 301C285.7 301 228.3 301 171.2 301C114 301 57 301 28.5 301L0 301Z" fill="#084e8d"></path><path d="M0 227L28.5 228.5C57 230 114 233 171.2 231C228.3 229 285.7 222 342.8 222.7C400 223.3 457 231.7 514.2 231.7C571.3 231.7 628.7 223.3 685.8 218.2C743 213 800 211 857.2 212.5C914.3 214 971.7 219 1028.8 224.8C1086 230.7 1143 237.3 1171.5 240.7L1200 244L1200 301L1171.5 301C1143 301 1086 301 1028.8 301C971.7 301 914.3 301 857.2 301C800 301 743 301 685.8 301C628.7 301 571.3 301 514.2 301C457 301 400 301 342.8 301C285.7 301 228.3 301 171.2 301C114 301 57 301 28.5 301L0 301Z" fill="#1a296a"></path><path d="M0 271L28.5 270C57 269 114 267 171.2 265C228.3 263 285.7 261 342.8 257.7C400 254.3 457 249.7 514.2 250.2C571.3 250.7 628.7 256.3 685.8 260.8C743 265.3 800 268.7 857.2 266.3C914.3 264 971.7 256 1028.8 251.5C1086 247 1143 246 1171.5 245.5L1200 245L1200 301L1171.5 301C1143 301 1086 301 1028.8 301C971.7 301 914.3 301 857.2 301C800 301 743 301 685.8 301C628.7 301 571.3 301 514.2 301C457 301 400 301 342.8 301C285.7 301 228.3 301 171.2 301C114 301 57 301 28.5 301L0 301Z" fill="#1f0043"></path></svg>