<svg id="visual" viewBox="0 0 1200 300" width="1200" height="300" xmlns="http://www.w3.org/2000/svg" xmlns:xlink="http://www.w3.org/1999/xlink" version="1.1"><rect x="0" y="0" width="1200" height="300" fill="#1f0043"></rect><path d="M0 103L150 105L300 86L450 98L600 126L750 116L900 78L1050 73L1200 111L1200 301L1050 301L900 301L750 301L600 301L450 301L300 301L150 301L0 301Z" fill="#1f0043"></path><path d="M0 148L150 128L300 127L450 112L600 89L750 92L900 133L1050 157L1200 137L1200 301L1050 301L900 301L750 301L600 301L450 301L300 301L150 301L0 301Z" fill="#55004e"></path><path d="M0 133L150 149L300 128L450 135L600 169L750 170L900 149L1050 134L1200 147L1200 301L1050 301L900 301L750 301L600 301L450 301L300 301L150 301L0 301Z" fill="#840152"></path><path d="M0 148L150 196L300 171L450 187L600 182L750 187L900 164L1050 194L1200 176L1200 301L1050 301L900 301L750 301L600 301L450 301L300 301L150 301L0 301Z" fill="#af2350"></path><path d="M0 172L150 212L300 188L450 203L600 185L750 185L900 184L1050 183L1200 175L1200 301L1050 301L900 301L750 301L600 301L450 301L300 301L150 301L0 301Z" fill="#d14849"></path><path d="M0 204L150 217L300 237L450 208L600 209L750 231L900 239L1050 219L1200 201L1200 301L1050 301L900 301L750 301L600 301L450 301L300 301L150 301L0 301Z" fill="#ea7141"></path><path d="M0 237L150 259L300 249L450 236L600 244L750 237L900 256L1050 228L1200 251L1200 301L1050 301L900 301L750 301L600 301L450 301L300 301L150 301L0 301Z" fill="#f99c3a"></path><path d="M0 277L150 268L300 266L450 257L600 277L750 271L900 264L1050 254L1200 260L1200 301L1050 301L900 301L750 301L600 301L450 301L300 301L150 301L0 301Z" fill="#fdc93e"></path></svg>