<svg width="75" height="75" viewBox="0 0 75 75" fill="none" xmlns="http://www.w3.org/2000/svg">
<path d="M70.8744 4.12558C68.1228 1.37394 64.8118 0 60.9377 0H14.0623C10.1882 0 6.87722 1.37394 4.12558 4.12558C1.37394 6.87722 0 10.1882 0 14.0623V60.9377C0 64.8118 1.37394 68.1228 4.12558 70.8744C6.87722 73.6261 10.1882 75 14.0623 75H25.0013C25.7145 75 26.2513 74.9737 26.6117 74.9249C27.031 74.8409 27.4094 74.6172 27.6853 74.2905C28.0419 73.9151 28.2221 73.3708 28.2221 72.6575L28.1959 69.3353C28.1808 67.2181 28.1733 65.5438 28.1733 64.305L27.0471 64.5002C26.3339 64.6316 25.433 64.6879 24.3406 64.6729C23.2019 64.6519 22.067 64.5376 20.947 64.3313C19.7548 64.1112 18.6324 63.6092 17.6736 62.8673C16.6694 62.1076 15.9204 61.06 15.5263 59.8641L15.0383 58.7379C14.627 57.8496 14.1102 57.0139 13.4992 56.2491C12.8009 55.3369 12.0914 54.7212 11.3744 54.3946L11.0366 54.1506C10.801 53.9819 10.5867 53.7852 10.3984 53.565C10.2186 53.3606 10.0705 53.1303 9.95921 52.8818C9.8616 52.6528 9.94419 52.4651 10.2032 52.3187C10.466 52.1685 10.9352 52.0972 11.6222 52.0972L12.5982 52.2474C13.2477 52.375 14.0548 52.7654 15.012 53.4148C15.9808 54.0753 16.79 54.9435 17.3807 55.9563C18.1315 57.2889 19.0325 58.3062 20.0911 59.0082C21.1497 59.7064 22.2158 60.0593 23.2895 60.0593C24.3631 60.0593 25.2903 59.9767 26.0749 59.8153C26.8336 59.6584 27.5708 59.4114 28.2709 59.0795C28.5637 56.9022 29.3596 55.2205 30.6622 54.0492C28.9743 53.8838 27.3015 53.5901 25.6582 53.1708C24.0545 52.7303 22.5122 52.0909 21.0671 51.2676C19.5552 50.4445 18.2198 49.3322 17.1367 47.9941C16.0969 46.6915 15.241 44.9835 14.5728 42.87C13.9084 40.7528 13.5743 38.309 13.5743 35.5423C13.5743 31.6044 14.8581 28.2522 17.4296 25.4818C16.2283 22.5236 16.3409 19.2014 17.7712 15.5263C18.7172 15.2297 20.1174 15.4512 21.9718 16.1832C23.8263 16.9153 25.1852 17.5422 26.0486 18.0602C26.912 18.5858 27.6027 19.025 28.1245 19.3816C31.1764 18.5323 34.3303 18.1054 37.4981 18.1128C40.7228 18.1128 43.846 18.537 46.8755 19.3816L48.7299 18.2104C50.1563 17.3539 51.6609 16.6349 53.2234 16.0631C54.9502 15.4099 56.2641 15.2335 57.18 15.5263C58.6441 19.2052 58.7717 22.5236 57.5667 25.4855C60.1381 28.2522 61.4257 31.6044 61.4257 35.5461C61.4257 38.3127 61.0916 40.764 60.4234 42.8925C59.759 45.0248 58.8956 46.7328 57.837 48.0204C56.7349 49.3414 55.3939 50.4429 53.8841 51.2676C52.3074 52.146 50.7758 52.7804 49.293 53.1708C47.6498 53.5915 45.977 53.8864 44.289 54.053C45.9783 55.517 46.8267 57.8257 46.8267 60.9828V72.6575C46.8267 73.2094 46.9055 73.6561 47.0707 73.9977C47.1466 74.1623 47.2548 74.3099 47.389 74.4318C47.5231 74.5537 47.6804 74.6473 47.8515 74.7072C48.2119 74.8348 48.5272 74.9174 48.805 74.9474C49.0828 74.985 49.4807 74.9962 49.9987 74.9962H60.9377C64.8118 74.9962 68.1228 73.6223 70.8744 70.8707C73.6223 68.1228 75 64.808 75 60.934V14.0623C75 10.1882 73.6261 6.87722 70.8744 4.12558Z" fill="white"/>
</svg>
