<svg width="75" height="75" viewBox="0 0 75 75" fill="none" xmlns="http://www.w3.org/2000/svg">
<path d="M37.5 33.2812C40.5095 33.2812 42.9492 30.8415 42.9492 27.832C42.9492 24.8225 40.5095 22.3828 37.5 22.3828C34.4905 22.3828 32.0508 24.8225 32.0508 27.832C32.0508 30.8415 34.4905 33.2812 37.5 33.2812Z" fill="#61DAFB"/>
<path d="M37.5 47.8711C41.7773 52.0313 45.9961 54.4922 49.3945 54.4922C50.5078 54.4922 51.5625 54.2578 52.4414 53.7305C55.4883 51.9727 56.6016 47.5781 55.5469 41.3086C55.3711 40.1953 55.1367 39.082 54.8438 37.9102C56.0156 37.5586 57.0703 37.207 58.125 36.8555C64.043 34.5703 67.3242 31.4063 67.3242 27.9492C67.3242 24.4336 64.043 21.2695 58.125 19.043C57.0703 18.6328 56.0156 18.2813 54.8438 17.9883C55.1367 16.8164 55.3711 15.7031 55.5469 14.5898C56.543 8.20313 55.4297 3.75 52.3828 1.99219C51.5039 1.46484 50.4492 1.23047 49.3359 1.23047C45.9961 1.23047 41.7188 3.69141 37.4414 7.85156C33.2227 3.69141 29.0039 1.23047 25.6055 1.23047C24.4922 1.23047 23.4375 1.46484 22.5586 1.99219C19.5117 3.75 18.3984 8.14453 19.4531 14.4141C19.6289 15.5273 19.8633 16.6406 20.1563 17.8125C18.9844 18.1641 17.9297 18.5156 16.875 18.8672C10.957 21.1523 7.67578 24.3164 7.67578 27.7734C7.67578 31.2891 10.957 34.4531 16.875 36.6797C17.9297 37.0898 18.9844 37.4414 20.1563 37.7344C19.8633 38.9063 19.6289 40.0195 19.4531 41.1328C18.457 47.4023 19.5703 51.8555 22.5586 53.5547C23.4375 54.082 24.4922 54.3164 25.6055 54.3164C29.0039 54.4336 33.2227 51.9727 37.5 47.8711ZM34.2188 39.9609C35.2734 40.0195 36.3867 40.0195 37.5 40.0195C38.6133 40.0195 39.7266 40.0195 40.7812 39.9609C39.7266 41.3672 38.6133 42.6563 37.5 43.8867C36.3867 42.6563 35.2734 41.3672 34.2188 39.9609ZM26.9531 33.9258C27.5391 34.9219 28.0664 35.8594 28.7109 36.7969C26.8945 36.5625 25.1953 36.2695 23.5547 35.918C24.082 34.3359 24.668 32.6953 25.3711 31.0547C25.8398 31.9922 26.3672 32.9883 26.9531 33.9258ZM23.5547 19.8047C25.1953 19.4531 26.8945 19.1602 28.7109 18.9258C28.125 19.8633 27.5391 20.8008 26.9531 21.7969C26.3672 22.793 25.8398 23.7305 25.3711 24.7266C24.6094 23.0273 24.0234 21.3867 23.5547 19.8047ZM26.7773 27.832C27.5391 26.25 28.3594 24.668 29.2969 23.0859C30.1758 21.5625 31.1719 20.0391 32.168 18.5156C33.9258 18.3984 35.6836 18.3398 37.5 18.3398C39.375 18.3398 41.1328 18.3984 42.832 18.5156C43.8867 20.0391 44.8242 21.5625 45.7031 23.0859C46.6406 24.668 47.4609 26.25 48.2227 27.832C47.4609 29.4141 46.6406 30.9961 45.7031 32.5781C44.8242 34.1016 43.8281 35.625 42.832 37.1484C41.0742 37.2656 39.3164 37.3242 37.5 37.3242C35.625 37.3242 33.8672 37.2656 32.168 37.1484C31.1133 35.625 30.1758 34.1016 29.2969 32.5781C28.3594 30.9961 27.5391 29.4141 26.7773 27.832ZM49.6875 24.668L48.1055 21.7383C47.5195 20.7422 46.9922 19.8047 46.3477 18.8672C48.1641 19.1016 49.8633 19.3945 51.5039 19.7461C50.9766 21.3867 50.3906 23.0273 49.6875 24.668ZM49.6875 30.9961C50.3906 32.6367 50.9766 34.2773 51.5039 35.8594C49.8633 36.2109 48.1641 36.5039 46.3477 36.7383C46.9336 35.8008 47.5195 34.8633 48.1055 33.8672C48.6328 32.9883 49.1602 31.9922 49.6875 30.9961ZM51.0352 51.3281C50.5664 51.6211 49.9805 51.7383 49.3359 51.7383C46.4648 51.7383 42.8906 49.3945 39.375 45.8789C41.0742 44.0625 42.7148 42.0117 44.3555 39.7266C47.1094 39.4922 49.7461 39.082 52.207 38.4961C52.5 39.5508 52.6758 40.6055 52.8516 41.6602C53.6719 46.6406 53.0273 50.2148 51.0352 51.3281ZM54.082 20.4492C60.6445 22.3242 64.5703 25.1953 64.5703 27.832C64.5703 30.1172 61.875 32.4023 57.1289 34.2188C56.1914 34.5703 55.1367 34.9219 54.082 35.2148C53.3203 32.8125 52.3828 30.3516 51.2109 27.832C52.3828 25.3125 53.3789 22.8516 54.082 20.4492ZM49.3945 3.92578C50.0391 3.92578 50.5664 4.04297 51.0938 4.33594C53.0273 5.44922 53.7305 8.96484 52.9102 14.0039C52.7344 15 52.5 16.0547 52.2656 17.168C49.8047 16.6406 47.168 16.2305 44.4141 15.9375C42.832 13.6523 41.1328 11.6016 39.4336 9.78516C42.9492 6.32813 46.5234 3.92578 49.3945 3.92578ZM40.7812 15.7031C39.7266 15.6445 38.6133 15.6445 37.5 15.6445C36.3867 15.6445 35.2734 15.6445 34.2188 15.7031C35.2734 14.2969 36.3867 13.0078 37.5 11.7773C38.6133 13.0078 39.7266 14.3555 40.7812 15.7031ZM23.9648 4.33594C24.4336 4.04297 25.0195 3.92578 25.6641 3.92578C28.5352 3.92578 32.1094 6.26953 35.625 9.78516C33.9258 11.6016 32.2852 13.6523 30.6445 15.9375C27.8906 16.1719 25.2539 16.582 22.793 17.168C22.5 16.1133 22.3242 15.0586 22.1484 14.0039C21.3281 9.02344 21.9727 5.50781 23.9648 4.33594ZM20.918 35.2148C14.3555 33.3398 10.4297 30.4688 10.4297 27.832C10.4297 25.5469 13.125 23.2617 17.8711 21.4453C18.8086 21.0938 19.8633 20.7422 20.918 20.4492C21.6797 22.8516 22.6172 25.3125 23.7891 27.832C22.6172 30.3516 21.6211 32.8711 20.918 35.2148ZM22.1484 41.6602C22.3242 40.6641 22.5586 39.6094 22.793 38.4961C25.2539 39.0234 27.8906 39.4336 30.6445 39.7266C32.2266 42.0117 33.9258 44.0625 35.625 45.8789C32.1094 49.3359 28.5352 51.7383 25.6641 51.7383C25.0195 51.7383 24.4922 51.6211 23.9648 51.3281C21.9727 50.2148 21.3281 46.6406 22.1484 41.6602ZM19.6875 65.8008C20.9766 64.2188 21.0352 62.4609 20.332 60.7031C19.6289 58.9453 18.1641 58.125 16.3477 58.0664C14.1797 58.0078 11.9531 58.0664 9.78516 58.0664H9.375V73.2422H11.1328V67.5H13.8867C14.2383 67.5 14.5312 67.6172 14.707 67.9102L18.2227 73.3594C18.2812 73.4766 18.457 73.6524 18.5742 73.6524H20.8594C19.4531 71.4844 18.1055 69.4336 16.6992 67.3242C17.9297 67.1484 18.9844 66.7383 19.6875 65.8008ZM11.1328 65.6836V59.8828H11.7773C13.125 59.8828 14.5312 59.8242 15.8789 59.9414C17.4609 60 18.5742 61.2305 18.5742 62.8125C18.5742 64.3945 17.2852 65.625 15.7031 65.6836C14.2969 65.7422 12.8906 65.6836 11.1328 65.6836ZM33.8086 66.4453C32.8711 62.3438 29.1211 61.2891 26.25 62.5781C24.0234 63.5742 23.0273 65.5078 22.9688 67.9102C22.9102 69.7266 23.4375 71.3672 24.8438 72.5977C26.4258 74.0039 28.3594 74.1797 30.3516 73.8281C31.4648 73.5938 32.4609 73.0664 33.2227 72.2461C32.9297 71.8359 32.6367 71.4258 32.3438 71.0742C30.7031 72.4805 28.8867 72.9492 26.8945 72.0117C25.6055 71.3672 24.9609 69.7852 24.8438 68.6133H33.9258V67.8516C33.9844 67.3242 33.9258 66.8555 33.8086 66.4453ZM24.9609 67.3828C24.7852 65.625 26.543 63.75 28.4766 63.75C30.7031 63.6914 32.1094 65.0391 32.168 67.3828H24.9609ZM42.9492 62.2852C42.0703 62.1094 41.1328 62.0508 40.2539 62.1094C38.8477 62.2266 37.6172 62.8711 36.6211 63.9258C36.9141 64.3359 37.1484 64.7461 37.5 65.2149C37.6172 65.0977 37.7344 64.9805 37.8516 64.9219C38.7891 64.043 39.9023 63.5742 41.25 63.6914C42.3047 63.75 43.3008 64.1016 43.5938 65.1563C43.8281 65.9766 43.7695 66.8555 43.8281 67.7344C43.6523 67.7344 43.5938 67.6758 43.5352 67.6172C42.1289 66.4453 40.5469 66.2109 38.8477 66.6211C37.2656 67.0313 36.2695 68.2617 36.1523 69.8438C36.0352 71.6602 36.8555 73.0078 38.4375 73.6524C39.4336 74.0625 40.5469 74.0625 41.6016 73.8281C42.4219 73.6524 42.7734 73.1836 43.9453 72.5391V73.3008H45.5859C45.5859 70.957 45.6445 68.0859 45.5859 65.3906C45.5859 63.6914 44.5898 62.6367 42.9492 62.2852ZM43.7695 69.668C43.7109 69.8438 43.7695 70.0195 43.7695 70.1953C43.7695 71.4258 43.4766 71.8359 42.3047 72.3047C41.4844 72.5977 40.6055 72.7149 39.7266 72.4219C38.7305 72.1289 38.0273 71.25 38.0273 70.2539C37.9688 69.2578 38.6133 68.2617 39.6094 67.9688C40.957 67.5 42.1875 67.793 43.3008 68.6133C43.6523 68.9063 43.8867 69.1992 43.7695 69.668ZM52.9102 63.8672C54.4336 63.3984 55.8398 63.6914 56.8945 64.9805L57.0703 65.0977C57.4805 64.7461 57.832 64.3945 58.3008 63.9844C58.125 63.8086 58.0664 63.6914 57.9492 63.5156C56.25 61.6992 52.9102 61.4649 50.8594 62.9297C47.9883 65.0391 48.0469 69.1406 49.4531 71.3086C50.8008 73.3594 52.7344 74.0625 55.0195 73.7695C56.3672 73.5938 57.4805 72.9492 58.3594 71.8359C57.9492 71.4844 57.5391 71.1328 57.1289 70.7227C57.0117 70.8399 56.9531 70.8984 56.8945 71.0156C55.3125 72.7734 52.6758 72.5977 51.2695 70.7227C50.4492 69.6094 50.2734 68.3203 50.5078 67.0313C50.625 65.5664 51.3867 64.3945 52.9102 63.8672ZM65.0977 71.8359C64.9805 71.8945 64.9219 71.9531 64.9219 71.9531C64.4531 72.3047 63.9844 72.3633 63.457 72.1875C62.9297 71.9531 62.8711 71.4844 62.8125 71.0156V64.3359C62.8125 64.2188 62.8125 64.4531 62.8711 63.8672H65.0977V62.1094H62.7539V59.1797H60.9961V62.3438H59.4727C59.3555 62.3438 59.1797 62.4609 59.1797 62.5781C59.1211 62.9883 59.1797 63.2813 59.1797 63.8672H61.0547V71.3672C61.0547 72.3047 61.2891 73.125 62.1094 73.5938C62.9883 74.1211 64.6875 74.0039 65.4492 73.3594C65.5664 73.3008 65.625 73.0664 65.625 73.0078C65.4492 72.6563 65.2734 72.2461 65.0977 71.8359Z" fill="#61DAFB"/>
</svg>
