<svg width="75" height="75" viewBox="0 0 75 75" fill="none" xmlns="http://www.w3.org/2000/svg">
<g clip-path="url(#clip0_230_39)">
<path d="M57.4219 0H17.5781C7.86999 0 0 7.86999 0 17.5781V57.4219C0 67.13 7.86999 75 17.5781 75H57.4219C67.13 75 75 67.13 75 57.4219V17.5781C75 7.86999 67.13 0 57.4219 0Z" fill="#CD6799"/>
<mask id="mask0_230_39" style="mask-type:luminance" maskUnits="userSpaceOnUse" x="8" y="15" width="59" height="45">
<path d="M8.20312 15.5273H66.7969V59.446H8.20312V15.5273Z" fill="white"/>
</mask>
<g mask="url(#mask0_230_39)">
<path d="M58.6249 40.7704C56.5817 40.7809 54.8063 41.2731 53.3195 42.0002C52.774 40.9201 52.2285 39.9574 52.1321 39.2513C52.0252 38.4278 51.8968 37.925 52.0252 36.941C52.1535 35.9569 52.7312 34.5559 52.7204 34.449C52.7098 34.3417 52.5921 33.8393 51.4155 33.8285C50.2389 33.8179 49.2229 34.0532 49.1051 34.3634C48.9874 34.6734 48.763 35.3794 48.6133 36.1069C48.4099 37.1765 46.2598 40.9951 45.0299 42.9952C44.6341 42.2144 44.292 41.5297 44.217 40.9842C44.11 40.1607 43.9817 39.658 44.11 38.6739C44.2383 37.6898 44.8161 36.2885 44.8052 36.1816C44.7947 36.0747 44.6769 35.5719 43.5004 35.5614C42.3238 35.5505 41.3075 35.7858 41.19 36.096C41.0722 36.4063 40.9439 37.1337 40.6978 37.8395C40.452 38.5455 37.5962 44.9206 36.8473 46.5676C36.5448 47.2342 36.2274 47.8939 35.8955 48.5463C35.8955 48.5463 35.8846 48.5786 35.8527 48.6319C35.7483 48.8365 35.6413 49.0397 35.5316 49.2415V49.2524C35.3714 49.5413 35.2 49.8084 35.1144 49.8084C35.0503 49.8084 34.9328 49.0385 35.1358 47.9903C35.5638 45.776 36.5798 42.3319 36.5693 42.2144C36.5693 42.1502 36.7618 41.5511 35.906 41.2409C35.0716 40.9306 34.7722 41.4442 34.6972 41.4442C34.6225 41.4442 34.5689 41.6261 34.5689 41.6261C34.5689 41.6261 35.4997 37.754 32.7935 37.754C31.1034 37.754 28.7716 39.6043 27.6168 41.2731C26.3035 41.9877 24.9913 42.7043 23.6801 43.4229C23.0494 43.7759 22.3969 44.129 21.787 44.4606C21.7442 44.4178 21.7014 44.3642 21.6587 44.3214C18.3856 40.8237 12.3317 38.3531 12.5883 33.6574C12.6847 31.9458 13.273 27.4535 24.2151 21.9984C33.2213 17.5596 40.3879 18.7895 41.6286 21.517C43.404 25.4106 37.7886 32.6411 28.4831 33.6893C24.9317 34.0851 23.0708 32.7161 22.6003 32.2028C22.1081 31.6678 22.0331 31.6359 21.8511 31.7428C21.5517 31.9031 21.7442 32.3844 21.8511 32.6624C22.1295 33.3899 23.2738 34.6734 25.2097 35.3044C26.9213 35.8608 31.082 36.171 36.1199 34.2243C41.7569 32.0422 46.1637 25.9772 44.8694 20.8968C43.5754 15.7412 35.0183 14.0405 26.9213 16.9177C22.1078 18.6292 16.8882 21.3246 13.1339 24.8329C8.67341 29.0047 7.96764 32.6305 8.25651 34.1493C9.29391 39.5402 16.7277 43.0485 19.7013 45.6477C19.5516 45.7332 19.4125 45.8082 19.295 45.8724C17.8082 46.6104 12.1392 49.5732 10.7271 52.7074C9.12282 56.2584 10.9841 58.804 12.2139 59.1462C16.0325 60.2053 19.958 58.3013 22.0653 55.1566C24.1723 52.0119 23.9157 47.9261 22.9422 46.0543C22.9317 46.0306 22.9173 46.0089 22.8994 45.9902C23.2846 45.7655 23.6801 45.5302 24.0654 45.3055C24.7732 44.8872 25.49 44.4842 26.2152 44.0967C25.8516 45.0916 25.5841 46.2788 25.4558 47.9903C25.2956 50.0012 26.1191 52.611 27.1993 53.6378C27.6806 54.087 28.2475 54.0978 28.6114 54.0978C29.8735 54.0978 30.4404 53.0496 31.0715 51.8088C31.8414 50.2898 32.5369 48.5249 32.5369 48.5249C32.5369 48.5249 31.6703 53.2956 34.0234 53.2956C34.8792 53.2956 35.7455 52.1832 36.1307 51.6164V51.6269C36.1307 51.6269 36.1521 51.595 36.1949 51.52C36.2804 51.3808 36.3338 51.2953 36.3338 51.2953V51.2739C36.6762 50.675 37.4462 49.3165 38.5908 47.0595C40.0668 44.1503 41.4894 40.5137 41.4894 40.5137C41.4894 40.5137 41.6177 41.4014 42.0563 42.8774C42.313 43.744 42.8479 44.6958 43.2757 45.6158C42.9335 46.0971 42.7196 46.3643 42.7196 46.3643L42.7301 46.3751C42.4521 46.7387 42.1527 47.1345 41.8211 47.5195C40.655 48.9102 39.2646 50.5039 39.0721 50.9639C38.8474 51.5094 38.901 51.9049 39.3288 52.226C39.639 52.4613 40.1951 52.4932 40.762 52.4613C41.8102 52.3863 42.5485 52.1296 42.9121 51.9691C43.479 51.7661 44.1423 51.4558 44.7625 50.9958C45.9071 50.1509 46.6023 48.9421 46.5382 47.3484C46.5059 46.4712 46.2171 45.5944 45.8643 44.7705C45.9713 44.6208 46.0674 44.4711 46.1743 44.3214C47.9822 41.6794 49.3832 38.7808 49.3832 38.7808C49.3832 38.7808 49.5115 39.6685 49.9501 41.1448C50.1639 41.8933 50.6025 42.7063 50.9878 43.4979C49.2871 44.8778 48.2388 46.4821 47.8644 47.5303C47.1906 49.4771 47.7147 50.354 48.7093 50.5573C49.1588 50.6537 49.8004 50.4398 50.2712 50.2365C50.87 50.044 51.576 49.7123 52.2499 49.2202C53.3942 48.3752 54.4961 47.1987 54.4319 45.6049C54.3997 44.8778 54.2072 44.1609 53.9397 43.4657C55.3838 42.8668 57.245 42.5352 59.6195 42.8132C64.711 43.4123 65.7165 46.589 65.5237 47.9261C65.3312 49.2629 64.2616 49.9904 63.9086 50.2151C63.5558 50.4398 63.4381 50.5145 63.4703 50.675C63.5131 50.9103 63.6841 50.8995 63.9836 50.8567C64.4007 50.782 66.6575 49.7765 66.7539 47.3165C66.9144 44.1717 63.9194 40.7381 58.6249 40.7704ZM19.3483 54.0122C17.6585 55.8518 15.3053 56.5473 14.289 55.959C13.198 55.3277 13.6257 52.611 15.7011 50.6642C16.963 49.4771 18.5889 48.3752 19.6691 47.7014C19.9152 47.5517 20.2788 47.3378 20.7174 47.0704C20.7924 47.0276 20.8351 47.0062 20.8351 47.0062L21.0918 46.8456C21.8511 49.6268 21.1237 52.0763 19.3483 54.0122ZM31.6489 45.6477C31.0606 47.0812 29.8307 50.7498 29.0819 50.5467C28.4403 50.3753 28.0445 47.5945 28.9536 44.8456C29.4135 43.4657 30.3868 41.8186 30.9537 41.1767C31.8736 40.1498 32.8896 39.8077 33.1357 40.2248C33.446 40.7704 32.0128 44.7492 31.6489 45.6477ZM41.7997 50.5039C41.5536 50.6323 41.3183 50.7178 41.2114 50.6537C41.1364 50.6109 41.3183 50.4398 41.3183 50.4398C41.3183 50.4398 42.5913 49.0705 43.094 48.4502C43.3826 48.0864 43.7251 47.6586 44.0886 47.1773V47.3165C44.0886 48.953 42.5057 50.0545 41.7997 50.5039ZM49.6293 48.7174C49.4473 48.5891 49.4796 48.1614 50.0892 46.8243C50.3245 46.3001 50.8808 45.4233 51.8327 44.5781C51.9396 44.9206 52.0146 45.2519 52.0038 45.5622C51.9932 47.6267 50.517 48.3966 49.6293 48.7174Z" fill="white"/>
</g>
</g>
<defs>
<clipPath id="clip0_230_39">
<rect width="75" height="75" fill="white"/>
</clipPath>
</defs>
</svg>
